Coordinates
version=1
nRows=14
nColumns=40
inDegrees=yes

Units are S.I. units (second, meters, Newtons, ...)
Angles are in degrees.

endheader
time	pelvis_tilt	pelvis_list	pelvis_rotation	pelvis_tx	pelvis_ty	pelvis_tz	hip_flexion_r	hip_adduction_r	hip_rotation_r	knee_angle_r	knee_angle_r_beta	ankle_angle_r	subtalar_angle_r	mtp_angle_r	hip_flexion_l	hip_adduction_l	hip_rotation_l	knee_angle_l	knee_angle_l_beta	ankle_angle_l	subtalar_angle_l	mtp_angle_l	lumbar_extension	lumbar_bending	lumbar_rotation	arm_flex_r	arm_add_r	arm_rot_r	elbow_flex_r	pro_sup_r	wrist_flex_r	wrist_dev_r	arm_flex_l	arm_add_l	arm_rot_l	elbow_flex_l	pro_sup_l	wrist_flex_l	wrist_dev_l
     14.58500000	     -3.99073704	     -3.66650351	     -4.39522721	      1.02565388	      0.92551264	      0.42784737	     27.94783525	     -2.65176684	    -12.82958311	     13.70366850	     13.70366850	      3.58727640	      4.23035670	     10.28228918	      0.21050960	     -4.78394935	    -11.31242035	     12.59502831	     12.59502831	     16.29348006	     -6.84788438	     -5.81965090	    -11.98835493	      5.69904292	      3.05147699	    -20.80376919	    -12.76665083	    -10.62616097	     24.56973206	     47.15582345	      0.00000000	      0.00000000	     30.97959668	    -20.28966708	     -3.17151931	     91.83418147	     47.78169179	      0.00000000	      0.00000000
     14.59635714	     -4.07807324	     -3.58238654	     -4.15170492	      1.02676640	      0.92381475	      0.42984388	     27.48226107	     -2.58301670	    -13.16666231	     13.81386478	     13.81386478	      3.60424812	      3.96386600	     10.15214834	     -0.33185384	     -4.81554517	    -11.13699777	     12.55047637	     12.55047637	     16.73317402	     -6.69596535	     -5.91031691	    -11.53436912	      5.61269522	      2.73293794	    -21.77701035	    -12.53268190	    -10.59416221	     24.43396588	     47.14608068	      0.00000000	      0.00000000	     31.52363096	    -20.46215696	     -3.24768231	     92.33701507	     47.80209310	      0.00000000	      0.00000000
     14.60771429	     -3.93080842	     -3.54885574	     -3.99786706	      1.02818862	      0.92231722	      0.43225801	     26.62507427	     -2.37425605	    -13.22727021	     13.80502986	     13.80502986	      1.90081235	      3.23370848	      5.12771461	     -1.09635693	     -5.02428105	    -11.74452351	     12.78740384	     12.78740384	     18.28881803	     -5.06972384	     -4.15691792	    -11.53112476	      5.47678971	      3.31505739	    -24.38641587	    -12.36436450	     -8.81920617	     28.23859851	     46.72181559	      0.00000000	      0.00000000	     32.16519806	    -20.25510755	     -2.44672370	     94.25121852	     47.91191979	      0.00000000	      0.00000000
     14.61907143	     -4.05818283	     -3.56722311	     -3.83112458	      1.02933892	      0.92082702	      0.43473869	     26.13938570	     -2.17494402	    -13.37684589	     14.16805251	     14.16805251	      1.73177188	      3.07831701	      5.09027990	     -1.58632827	     -5.20896524	    -11.63625800	     12.79179969	     12.79179969	     18.66318046	     -5.08128288	     -4.26058949	    -11.06372494	      5.40067246	      3.08315184	    -24.82874881	    -12.13872248	     -8.78415715	     28.10670916	     46.71947381	      0.00000000	      0.00000000	     32.37699662	    -20.28374972	     -2.47603511	     94.49407964	     47.92108835	      0.00000000	      0.00000000
     14.63042857	     -3.96333683	     -3.62816880	     -3.63038020	      1.03061372	      0.91951923	      0.43735175	     25.80584230	     -2.02927932	    -13.27368621	     15.36713512	     15.36713512	      1.62493853	      2.32190356	      3.99825812	     -2.29282746	     -5.48502010	    -11.67896430	     12.89370781	     12.89370781	     19.13752104	     -4.60850211	     -4.08292641	    -11.04610691	      5.41258623	      3.45303654	    -25.50499000	    -11.71012298	     -8.61403353	     28.11608064	     46.69228103	      0.00000000	      0.00000000	     32.59917427	    -19.98813365	     -2.29203463	     96.22003710	     47.95609033	      0.00000000	      0.00000000
     14.64178571	     -4.06279359	     -3.72220087	     -3.43653030	      1.03169899	      0.91827822	      0.44019330	     25.47103288	     -1.76010916	    -13.10108211	     16.06034231	     16.06034231	      0.90185699	      1.50354866	      2.00576743	     -2.57345382	     -5.91576799	    -11.91520042	     13.40716450	     13.40716450	     19.92371443	     -3.81813663	     -3.55635803	    -10.80166360	      5.42564639	      3.39390778	    -25.79904181	    -11.39494608	     -8.42167413	     28.52404428	     46.64414263	      0.00000000	      0.00000000	     32.22990592	    -20.08420942	     -2.22741468	     97.88641845	     48.00571565	      0.00000000	      0.00000000
     14.65314286	     -4.05693592	     -3.96396904	     -3.23003942	      1.03288235	      0.91751691	      0.44313203	     24.82815609	     -1.31386605	    -12.99230156	     16.32580969	     16.32580969	     -0.23402092	      0.69720400	     -1.46943359	     -2.87526270	     -6.56943869	    -12.31463412	     14.17813784	     14.17813784	     21.05959765	     -2.73382625	     -2.15819862	    -10.66347565	      5.65366744	      2.96154750	    -25.53640705	    -11.44402510	     -7.84061842	     28.75311828	     46.56548043	      0.00000000	      0.00000000	     31.41408279	    -20.31968632	     -2.86236275	     99.10880808	     48.12160375	      0.00000000	      0.00000000
     14.66450000	     -4.11755696	     -4.16642786	     -3.09174627	      1.03375405	      0.91704581	      0.44616766	     24.57953676	     -1.00802589	    -13.03885721	     17.17242384	     17.17242384	     -0.07913612	      0.39914877	     -1.95516885	     -3.06269719	     -7.10236844	    -12.24083955	     14.86191718	     14.86191718	     21.20479466	     -2.90936097	     -2.11238547	    -10.49765281	      5.78681837	      3.19504865	    -25.24304873	    -11.20570373	     -7.65874119	     28.68273356	     46.55264601	      0.00000000	      0.00000000	     31.05759144	    -19.95734037	     -2.82433378	     99.54735295	     48.13626732	      0.00000000	      0.00000000
     14.67585714	     -4.24806152	     -4.38938983	     -2.96908105	      1.03438148	      0.91691704	      0.44926726	     24.34144258	     -0.65058839	    -13.01511815	     17.77356312	     17.77356312	      0.12047190	      0.16373860	     -2.42208933	     -2.97219728	     -7.73326552	    -12.19865912	     15.90364064	     15.90364064	     21.27772317	     -2.96918544	     -2.11048682	    -10.32506266	      5.97635905	      3.27664960	    -24.56194411	    -11.00013325	     -7.46352686	     28.59646915	     46.54264058	      0.00000000	      0.00000000	     30.36636767	    -19.67784902	     -2.90900945	    100.06931838	     48.16037223	      0.00000000	      0.00000000
     14.68721429	     -4.37742877	     -4.62892798	     -2.85902855	      1.03489727	      0.91714503	      0.45248942	     24.06133631	     -0.26998663	    -13.05824550	     18.21853736	     18.21853736	      0.45189985	     -0.01555607	     -2.84410451	     -2.68509305	     -8.45205602	    -12.20337966	     17.30263693	     17.30263693	     21.30762319	     -3.05479357	     -2.19632391	    -10.15310128	      6.13209443	      3.15919661	    -23.49182911	    -10.94566694	     -7.19301832	     28.28918247	     46.53862832	      0.00000000	      0.00000000	     29.27009773	    -19.46235743	     -3.27001654	    100.67675064	     48.20702490	      0.00000000	      0.00000000
     14.69857143	     -4.42118865	     -4.87328535	     -2.75002532	      1.03521195	      0.91794021	      0.45567246	     23.63320337	      0.10314638	    -13.21467294	     18.49615547	     18.49615547	      0.91137284	      0.02410414	     -3.07421599	     -2.32082345	     -9.16586016	    -11.99421823	     18.93844782	     18.93844782	     20.98706104	     -3.58174976	     -2.40111932	    -10.18096399	      6.34904699	      3.30384077	    -22.32567853	    -10.87360176	     -7.02098566	     28.25736881	     46.53455051	      0.00000000	      0.00000000	     28.26351925	    -19.14694701	     -3.39517296	    100.80897997	     48.22080750	      0.00000000	      0.00000000
     14.70992857	     -4.56568064	     -5.03067279	     -2.65806743	      1.03534817	      0.91886665	      0.45887057	     23.28474524	      0.38484729	    -13.42500861	     18.66721616	     18.66721616	      1.49869205	      0.21677286	     -3.08697130	     -1.59803494	     -9.83564475	    -11.67448961	     20.96209300	     20.96209300	     20.36663847	     -4.31575230	     -3.08624181	    -10.05835404	      6.41320533	      2.91075373	    -20.46165142	    -10.96557963	     -6.57769731	     27.54935131	     46.54105321	      0.00000000	      0.00000000	     26.55319393	    -18.95188154	     -4.24600665	    101.24139483	     48.29806601	      0.00000000	      0.00000000
     14.72128571	     -4.58435867	     -5.24262208	     -2.54049134	      1.03535433	      0.92027530	      0.46206363	     22.61767797	      0.75816802	    -13.69396005	     18.46044561	     18.46044561	      1.98972573	      0.54059422	     -3.14152638	     -0.75427011	    -10.57551280	    -11.15092576	     23.39979507	     23.39979507	     19.54241789	     -5.36733422	     -3.50321153	    -10.16902740	      6.55583541	      3.07711464	    -19.06249040	    -10.96083887	     -6.44049589	     27.70975043	     46.53452263	      0.00000000	      0.00000000	     25.39144877	    -18.51216317	     -4.18243511	    100.93394768	     48.28796163	      0.00000000	      0.00000000
     14.73264286	     -4.74438378	     -5.34649689	     -2.41615453	      1.03516166	      0.92161679	      0.46512652	     22.04034648	      1.01368906	    -14.04450273	     18.10418224	     18.10418224	      2.50647230	      1.07410862	     -3.14175304	      0.52488922	    -11.18792785	    -10.39922129	     26.22886246	     26.22886246	     18.33940050	     -6.80186985	     -4.17609626	    -10.05627097	      6.61098841	      3.03199987	    -17.39407309	    -10.98124343	     -6.27458507	     27.82827467	     46.52935433	      0.00000000	      0.00000000	     23.93059228	    -18.12815265	     -4.31011327	    100.34659920	     48.28494538	      0.00000000	      0.00000000
